<svg width="42" height="42" viewBox="0 0 42 42" fill="none" xmlns="http://www.w3.org/2000/svg">
<mask id="path-1-inside-1_547_6934" fill="white">
<path d="M41.6908 20.8831C41.6682 19.7874 41.597 18.8473 41.4736 18.0104C41.3394 17.0999 41.1364 16.1692 40.8729 15.2433C40.6438 14.442 40.3316 13.5861 39.9173 12.6246C39.5837 11.8494 39.1647 11.0493 38.6353 10.1804C38.196 9.45747 37.6618 8.70486 37.0481 7.94394C36.5258 7.29698 35.9168 6.6429 35.1856 5.9449C34.5849 5.37154 33.8941 4.80055 33.0762 4.20108C32.3651 3.67995 31.5816 3.1885 30.7471 2.74097C28.9665 1.79249 26.9829 1.08499 25.01 0.69207C23.0263 0.299147 20.9953 0.200619 18.976 0.397674C17.5468 0.530627 16.0831 0.835707 14.6254 1.3046C13.7849 1.57763 12.9195 1.92545 12.053 2.33855C11.2671 2.71248 10.4611 3.16594 9.65745 3.68826C8.90247 4.17852 8.16886 4.7317 7.47679 5.33474C6.77641 5.9449 6.12233 6.59067 5.53473 7.25543C4.92219 7.9475 4.35833 8.67281 3.85857 9.41236C3.34219 10.1756 2.87448 10.9746 2.4685 11.7853C2.07439 12.5712 1.72658 13.4093 1.40369 14.3459C1.09742 15.2326 0.862383 16.1229 0.683134 17.0666C0.502698 18.0187 0.386364 18.9767 0.338881 19.9097C0.318701 20.2373 0.309204 20.5555 0.309204 20.8795V21.1003C0.350752 22.8928 0.572736 24.5809 0.96922 26.1193C1.37758 27.7029 1.98536 29.2544 2.77358 30.7287C3.54162 32.1651 4.48416 33.5101 5.5739 34.7292C6.67432 35.9578 7.90176 37.0452 9.2218 37.9592C10.6107 38.922 11.9889 39.6532 13.5594 40.2634C15.1631 40.8866 16.8417 41.3068 18.5487 41.5145C19.2835 41.6048 20.2284 41.7009 21.2386 41.7009C21.8416 41.7009 22.4696 41.6665 23.0893 41.5775L23.4501 41.5347C33.7908 40.299 41.6326 31.517 41.6908 21.1027V20.8831ZM38.7172 28.998C38.3966 29.7007 38.0334 30.3869 37.6274 31.0528C37.504 30.616 37.2701 30.2183 36.9294 29.8669C37.5847 29.709 38.1818 29.4182 38.7172 28.998ZM5.09195 29.8859C4.75482 30.2325 4.52334 30.6219 4.39869 31.0516C3.99983 30.394 3.64134 29.7197 3.32676 29.0348C3.85501 29.4431 4.44499 29.728 5.09195 29.8847V29.8859ZM3.31252 12.9546C3.63065 12.2554 3.99271 11.5728 4.39513 10.9116C4.51859 11.3449 4.75244 11.739 5.09195 12.088C4.44024 12.2471 3.84551 12.5367 3.31133 12.9546H3.31252ZM36.9365 12.0773C37.2737 11.7307 37.5063 11.3402 37.631 10.9093C38.0322 11.5705 38.3919 12.2483 38.7077 12.9368C38.177 12.5225 37.5847 12.2352 36.9365 12.0762V12.0773ZM19.1446 14.7447C19.6574 16.041 20.7923 16.1075 21.0142 16.1075C21.2362 16.1075 22.3711 16.0422 22.8839 14.7447C23.0976 14.1998 23.062 13.6574 23.0323 13.2205L23.0299 13.1896C23.0204 13.0401 22.9931 12.6424 23.0406 12.5771C23.0406 12.5771 23.0667 12.5534 23.1985 12.5296C23.9808 12.3777 25.2699 12.424 27.4423 14.5845C29.2834 16.4149 29.8473 18.1908 29.6597 18.8651C29.6111 19.0372 29.5339 19.112 29.3748 19.1523C29.1327 19.2058 28.9059 19.2497 28.6828 19.2936C28.5926 19.3114 28.5047 19.328 28.4157 19.3458C27.3568 19.5441 26.2623 19.7483 26.178 20.9353V20.946V21.0267C26.2623 22.215 27.3604 22.4192 28.4276 22.6186C28.6946 22.6637 29.0128 22.7278 29.3665 22.8085C29.5327 22.8501 29.6087 22.9261 29.6574 23.0958C29.8449 23.7725 29.2823 25.5483 27.4399 27.3788C25.2676 29.5393 23.9784 29.5868 23.1997 29.4348C23.0643 29.4075 23.0394 29.3838 23.0382 29.3826C22.9907 29.3197 23.018 28.9232 23.0275 28.7807C23.0715 28.2893 23.0964 27.7646 22.8815 27.2185C22.3687 25.9223 21.2339 25.8558 21.0119 25.8558C20.7899 25.8558 19.655 25.9211 19.1422 27.2185C18.9285 27.7634 18.9642 28.3059 18.9938 28.7416L18.9962 28.7748C19.0057 28.9244 19.033 29.3221 18.9855 29.3873C18.9855 29.3873 18.9594 29.4111 18.8265 29.4348C18.0454 29.5868 16.755 29.5405 14.5826 27.38C12.7415 25.5495 12.1776 23.7736 12.3652 23.0994C12.4139 22.9273 12.491 22.8525 12.6501 22.8121C12.897 22.7575 13.1332 22.7112 13.3421 22.6708L13.3884 22.6614C13.462 22.6471 13.5356 22.6329 13.5974 22.6198L13.6081 22.6174C14.6669 22.4192 15.7614 22.215 15.8457 21.0279V21.0172V20.9365C15.7614 19.7483 14.6634 19.5441 13.5962 19.3447C13.3291 19.3007 13.011 19.2354 12.6572 19.1559C12.491 19.1144 12.4139 19.0384 12.3652 18.8686C12.1776 18.192 12.7403 16.4161 14.5826 14.5856C16.755 12.4252 18.0454 12.3777 18.8229 12.5296C18.9582 12.5569 18.9832 12.5807 18.9832 12.5819C19.0306 12.6448 19.0033 13.0413 18.9938 13.1837C18.9499 13.6752 18.925 14.1998 19.1398 14.7459L19.1446 14.7447ZM21.7775 13.2692C21.8048 13.636 21.8203 13.9885 21.7099 14.2746C21.4986 14.8076 21.1009 14.8337 21.0237 14.8337H21.0047C20.9276 14.8337 20.5287 14.8064 20.3162 14.2687C20.1975 13.9838 20.2248 13.6206 20.251 13.2704C20.2842 12.8584 20.2913 12.4287 20.1322 12.0584C20.194 11.6227 20.5691 11.2903 21.0142 11.2903C21.4594 11.2903 21.8357 11.6227 21.8962 12.0595C21.7289 12.4537 21.7467 12.8893 21.7775 13.2692ZM28.8953 21.4209C28.8122 21.4054 28.7314 21.39 28.6519 21.3734C27.7497 21.2001 27.4826 21.1158 27.4399 20.9757C27.4838 20.8356 27.7509 20.7513 28.6531 20.578L28.8312 20.5436C29.0793 20.4961 29.3618 20.4427 29.6586 20.3703L29.8853 20.3157V20.2848C30.0135 20.2373 30.1322 20.1744 30.2414 20.0961C30.6379 20.1934 30.9252 20.5495 30.9252 20.965C30.9252 21.3805 30.6355 21.7414 30.2355 21.8363C30.0432 21.7046 29.8556 21.6227 29.6597 21.5799C29.3891 21.5146 29.1279 21.4648 28.8976 21.4209H28.8953ZM20.251 28.6917C20.2236 28.3249 20.2082 27.9712 20.3186 27.6851C20.5287 27.1533 20.9264 27.126 21.0047 27.126H21.0237C21.1009 27.126 21.4998 27.1533 21.7122 27.691C21.831 27.9771 21.8037 28.3392 21.7775 28.6965V28.7214C21.7562 29.0728 21.7324 29.5025 21.8939 29.8859C21.8167 30.3097 21.4511 30.6207 21.0142 30.6207C20.5774 30.6207 20.2106 30.3097 20.1346 29.8859C20.2996 29.5013 20.2818 29.0692 20.251 28.6905V28.6917ZM13.1249 20.54L13.1403 20.5436C13.2187 20.559 13.2935 20.5733 13.3683 20.5875C14.2704 20.7608 14.5375 20.8463 14.5815 20.9852C14.5375 21.1253 14.2704 21.2096 13.3683 21.3829L13.195 21.4161C12.9457 21.4636 12.6643 21.517 12.3592 21.5906C12.1396 21.6476 11.9438 21.7366 11.7776 21.8565C11.3668 21.7675 11.0689 21.4102 11.0689 20.9852C11.0689 20.5602 11.3716 20.197 11.7752 20.1127C11.9545 20.2433 12.1563 20.3359 12.364 20.381C12.6347 20.4463 12.8958 20.4961 13.1249 20.54ZM30.1286 36.6772C30.4337 36.9752 30.8397 37.2553 31.362 37.3918C31.3691 37.3942 31.3774 37.3954 31.3846 37.3978C30.6557 37.8607 29.9007 38.2726 29.1244 38.6299C29.604 38.0708 29.9399 37.4191 30.1286 36.6772ZM36.4605 28.6846C33.1498 29.3078 30.7578 28.2786 29.2739 27.2233C30.5085 25.667 31.121 24.0704 30.9145 22.9368C31.6754 22.5961 32.1858 21.8268 32.1858 20.9757C32.1858 20.1246 31.6766 19.3565 30.9157 19.0158C31.1246 17.8905 30.5121 16.2891 29.2739 14.7293C30.7578 13.674 33.1498 12.6448 36.4605 13.268C40.296 13.9897 40.4515 20.6587 40.4562 20.9377V21.0208C40.4515 21.3033 40.3019 27.9605 36.4605 28.6858V28.6846ZM36.4403 10.4724C36.248 11.3141 35.2639 11.7473 35.0515 11.8316C31.9057 11.6892 29.6253 12.9202 28.4359 13.7749C28.4038 13.7416 28.3706 13.7096 28.3397 13.6775C28.2637 13.6016 28.1866 13.5268 28.1047 13.4508C28.8644 12.1498 30.0194 9.85988 30.2663 7.61156H30.302V7.3599C30.3696 7.15928 30.7934 6.009 31.6849 5.77633C32.4874 5.56384 33.5296 6.08022 34.7832 7.3136C36.0391 8.54223 36.6279 9.66283 36.4403 10.4724ZM31.3585 4.56195C30.9062 4.67947 30.4943 4.92045 30.1286 5.27894C29.9387 4.53939 29.5992 3.88531 29.1149 3.32145C29.896 3.67995 30.6533 4.09305 31.3834 4.55483C31.3751 4.5572 31.3668 4.55958 31.3573 4.56076L31.3585 4.56195ZM11.901 5.27538C11.5971 4.97743 11.1912 4.69728 10.67 4.56195C10.6617 4.55958 10.6534 4.5572 10.6451 4.55601C11.374 4.09424 12.1278 3.68351 12.9029 3.3262C12.4245 3.88413 12.0898 4.53583 11.8998 5.27657L11.901 5.27538ZM11.7408 7.40975L11.7443 7.42162C11.9438 9.77679 13.1427 12.1331 13.9286 13.4544C13.8478 13.5315 13.7683 13.6111 13.6912 13.6882L13.6805 13.6989C13.6544 13.7286 13.6259 13.7571 13.5974 13.7867C12.4708 12.9772 10.3661 11.8304 7.47442 11.8304C7.31179 11.8304 7.14678 11.834 6.9794 11.8411C6.7503 11.7497 5.77927 11.3188 5.58815 10.4807C5.40059 9.67233 5.98938 8.55172 7.2465 7.3231C8.47631 6.11227 9.54706 5.58046 10.3448 5.78583C11.3146 6.03986 11.7348 7.39551 11.7396 7.40975H11.7408ZM5.56915 13.2775C6.26597 13.1457 6.92124 13.0887 7.53733 13.0887C9.8462 13.0887 11.5841 13.9055 12.7557 14.7388C11.5224 16.2939 10.9086 17.8893 11.1116 19.0135C10.3258 19.353 9.81534 20.1139 9.81534 20.9864C9.81534 21.8589 10.3365 22.6151 11.1128 22.9569C10.9098 24.0811 11.5224 25.6777 12.7569 27.234C11.2731 28.2893 8.88111 29.3185 5.57153 28.6953C1.73607 27.9735 1.58057 21.3045 1.57582 21.0256V20.9425C1.58057 20.6587 1.73014 13.9933 5.57153 13.2775H5.56915ZM5.58933 31.479C5.78045 30.6421 6.75386 30.21 6.9794 30.1198C7.14916 30.1269 7.31535 30.1269 7.47679 30.1269C10.3673 30.1269 12.4827 28.9695 13.5938 28.1753C13.6259 28.2074 13.6579 28.2394 13.6912 28.2727C13.7671 28.3486 13.8467 28.4246 13.9262 28.4994C13.1665 29.8004 12.0114 32.0903 11.7645 34.3386H11.7289V34.5903C11.6612 34.7909 11.2375 35.9412 10.346 36.1739C9.54231 36.3875 8.50005 35.87 7.24768 34.6366C5.99175 33.408 5.40296 32.2874 5.59052 31.4778L5.58933 31.479ZM10.6617 37.3906C11.114 37.2731 11.5259 37.0321 11.8915 36.6736C12.0815 37.412 12.4198 38.0649 12.9029 38.6276C12.1183 38.2667 11.3609 37.8548 10.6368 37.3966C10.6451 37.3942 10.6534 37.3918 10.6617 37.3906ZM13.1214 33.7356C13.462 32.0215 14.3108 30.3477 14.8854 29.3541C16.0902 30.2919 17.2144 30.7489 18.3125 30.7489C18.5772 30.7489 18.8229 30.7252 19.0674 30.6741C19.0674 30.6741 19.0698 30.6741 19.071 30.6741C19.4259 31.4089 20.1714 31.8861 21.0047 31.8861C21.8381 31.8861 22.5848 31.4089 22.9385 30.6741C22.9432 30.6741 22.948 30.6765 22.9527 30.6777C23.2258 30.7276 23.4715 30.7501 23.7255 30.7501C24.801 30.7501 25.9157 30.2907 27.123 29.347C28.405 31.5775 30.5714 36.3128 27.377 38.4994C26.1282 39.3529 24.82 39.9286 23.4846 40.2123C23.3053 40.2527 23.1083 40.2824 22.8815 40.3037H22.8756C22.4506 40.3512 22.0114 40.3809 21.5674 40.3904H20.4373C19.9945 40.3797 19.6135 40.3583 19.2716 40.3239C18.9167 40.2907 18.646 40.2503 18.3955 40.1933C17.1064 39.9037 15.8386 39.3363 14.6301 38.51C13.1938 37.5236 12.6857 35.9175 13.119 33.7368L13.1214 33.7356ZM30.2889 34.5511L30.2853 34.5393C30.0859 32.1841 28.887 29.8277 28.1011 28.5065C28.1806 28.4306 28.2602 28.351 28.3385 28.2727L28.3492 28.262C28.3765 28.2323 28.4038 28.2026 28.4323 28.1741C29.5339 28.9683 31.6398 30.1269 34.5529 30.1269C34.6479 30.1269 34.7404 30.1245 34.833 30.1221H34.8556C34.9185 30.1198 34.9826 30.1186 35.0467 30.1174C35.2461 30.1957 36.248 30.6302 36.4415 31.4802C36.6291 32.2886 36.0403 33.4104 34.7832 34.6378C33.5308 35.8712 32.4886 36.3876 31.6849 36.1751C30.7151 35.921 30.2948 34.5642 30.2901 34.5511H30.2889ZM20.9252 1.55389H21.5342C21.9544 1.5622 22.4162 1.59306 22.9848 1.64886C23.1629 1.66904 23.3112 1.68684 23.4715 1.72246C24.8093 2.00379 26.1199 2.58309 27.3687 3.44372C28.805 4.43018 29.3131 6.0363 28.8798 8.21697C28.5391 9.92992 27.6904 11.6037 27.1158 12.5973C25.6569 11.4553 24.2965 11.022 22.9658 11.2749C22.618 10.5235 21.8476 10.0201 21.0059 10.0201C20.1643 10.0201 19.3939 10.5246 19.0461 11.2749C18.1866 11.1134 16.8381 11.0909 14.8972 12.6068C13.6152 10.3763 11.4488 5.641 14.6432 3.45322C15.9525 2.5546 17.3177 1.96581 18.7113 1.70109C18.8181 1.67616 18.9369 1.65835 19.0567 1.65004H19.0579C19.5126 1.61206 19.9815 1.57288 20.448 1.56339L20.9252 1.55389Z"/>
</mask>
<path d="M41.6908 20.8831C41.6682 19.7874 41.597 18.8473 41.4736 18.0104C41.3394 17.0999 41.1364 16.1692 40.8729 15.2433C40.6438 14.442 40.3316 13.5861 39.9173 12.6246C39.5837 11.8494 39.1647 11.0493 38.6353 10.1804C38.196 9.45747 37.6618 8.70486 37.0481 7.94394C36.5258 7.29698 35.9168 6.6429 35.1856 5.9449C34.5849 5.37154 33.8941 4.80055 33.0762 4.20108C32.3651 3.67995 31.5816 3.1885 30.7471 2.74097C28.9665 1.79249 26.9829 1.08499 25.01 0.69207C23.0263 0.299147 20.9953 0.200619 18.976 0.397674C17.5468 0.530627 16.0831 0.835707 14.6254 1.3046C13.7849 1.57763 12.9195 1.92545 12.053 2.33855C11.2671 2.71248 10.4611 3.16594 9.65745 3.68826C8.90247 4.17852 8.16886 4.7317 7.47679 5.33474C6.77641 5.9449 6.12233 6.59067 5.53473 7.25543C4.92219 7.9475 4.35833 8.67281 3.85857 9.41236C3.34219 10.1756 2.87448 10.9746 2.4685 11.7853C2.07439 12.5712 1.72658 13.4093 1.40369 14.3459C1.09742 15.2326 0.862383 16.1229 0.683134 17.0666C0.502698 18.0187 0.386364 18.9767 0.338881 19.9097C0.318701 20.2373 0.309204 20.5555 0.309204 20.8795V21.1003C0.350752 22.8928 0.572736 24.5809 0.96922 26.1193C1.37758 27.7029 1.98536 29.2544 2.77358 30.7287C3.54162 32.1651 4.48416 33.5101 5.5739 34.7292C6.67432 35.9578 7.90176 37.0452 9.2218 37.9592C10.6107 38.922 11.9889 39.6532 13.5594 40.2634C15.1631 40.8866 16.8417 41.3068 18.5487 41.5145C19.2835 41.6048 20.2284 41.7009 21.2386 41.7009C21.8416 41.7009 22.4696 41.6665 23.0893 41.5775L23.4501 41.5347C33.7908 40.299 41.6326 31.517 41.6908 21.1027V20.8831ZM38.7172 28.998C38.3966 29.7007 38.0334 30.3869 37.6274 31.0528C37.504 30.616 37.2701 30.2183 36.9294 29.8669C37.5847 29.709 38.1818 29.4182 38.7172 28.998ZM5.09195 29.8859C4.75482 30.2325 4.52334 30.6219 4.39869 31.0516C3.99983 30.394 3.64134 29.7197 3.32676 29.0348C3.85501 29.4431 4.44499 29.728 5.09195 29.8847V29.8859ZM3.31252 12.9546C3.63065 12.2554 3.99271 11.5728 4.39513 10.9116C4.51859 11.3449 4.75244 11.739 5.09195 12.088C4.44024 12.2471 3.84551 12.5367 3.31133 12.9546H3.31252ZM36.9365 12.0773C37.2737 11.7307 37.5063 11.3402 37.631 10.9093C38.0322 11.5705 38.3919 12.2483 38.7077 12.9368C38.177 12.5225 37.5847 12.2352 36.9365 12.0762V12.0773ZM19.1446 14.7447C19.6574 16.041 20.7923 16.1075 21.0142 16.1075C21.2362 16.1075 22.3711 16.0422 22.8839 14.7447C23.0976 14.1998 23.062 13.6574 23.0323 13.2205L23.0299 13.1896C23.0204 13.0401 22.9931 12.6424 23.0406 12.5771C23.0406 12.5771 23.0667 12.5534 23.1985 12.5296C23.9808 12.3777 25.2699 12.424 27.4423 14.5845C29.2834 16.4149 29.8473 18.1908 29.6597 18.8651C29.6111 19.0372 29.5339 19.112 29.3748 19.1523C29.1327 19.2058 28.9059 19.2497 28.6828 19.2936C28.5926 19.3114 28.5047 19.328 28.4157 19.3458C27.3568 19.5441 26.2623 19.7483 26.178 20.9353V20.946V21.0267C26.2623 22.215 27.3604 22.4192 28.4276 22.6186C28.6946 22.6637 29.0128 22.7278 29.3665 22.8085C29.5327 22.8501 29.6087 22.9261 29.6574 23.0958C29.8449 23.7725 29.2823 25.5483 27.4399 27.3788C25.2676 29.5393 23.9784 29.5868 23.1997 29.4348C23.0643 29.4075 23.0394 29.3838 23.0382 29.3826C22.9907 29.3197 23.018 28.9232 23.0275 28.7807C23.0715 28.2893 23.0964 27.7646 22.8815 27.2185C22.3687 25.9223 21.2339 25.8558 21.0119 25.8558C20.7899 25.8558 19.655 25.9211 19.1422 27.2185C18.9285 27.7634 18.9642 28.3059 18.9938 28.7416L18.9962 28.7748C19.0057 28.9244 19.033 29.3221 18.9855 29.3873C18.9855 29.3873 18.9594 29.4111 18.8265 29.4348C18.0454 29.5868 16.755 29.5405 14.5826 27.38C12.7415 25.5495 12.1776 23.7736 12.3652 23.0994C12.4139 22.9273 12.491 22.8525 12.6501 22.8121C12.897 22.7575 13.1332 22.7112 13.3421 22.6708L13.3884 22.6614C13.462 22.6471 13.5356 22.6329 13.5974 22.6198L13.6081 22.6174C14.6669 22.4192 15.7614 22.215 15.8457 21.0279V21.0172V20.9365C15.7614 19.7483 14.6634 19.5441 13.5962 19.3447C13.3291 19.3007 13.011 19.2354 12.6572 19.1559C12.491 19.1144 12.4139 19.0384 12.3652 18.8686C12.1776 18.192 12.7403 16.4161 14.5826 14.5856C16.755 12.4252 18.0454 12.3777 18.8229 12.5296C18.9582 12.5569 18.9832 12.5807 18.9832 12.5819C19.0306 12.6448 19.0033 13.0413 18.9938 13.1837C18.9499 13.6752 18.925 14.1998 19.1398 14.7459L19.1446 14.7447ZM21.7775 13.2692C21.8048 13.636 21.8203 13.9885 21.7099 14.2746C21.4986 14.8076 21.1009 14.8337 21.0237 14.8337H21.0047C20.9276 14.8337 20.5287 14.8064 20.3162 14.2687C20.1975 13.9838 20.2248 13.6206 20.251 13.2704C20.2842 12.8584 20.2913 12.4287 20.1322 12.0584C20.194 11.6227 20.5691 11.2903 21.0142 11.2903C21.4594 11.2903 21.8357 11.6227 21.8962 12.0595C21.7289 12.4537 21.7467 12.8893 21.7775 13.2692ZM28.8953 21.4209C28.8122 21.4054 28.7314 21.39 28.6519 21.3734C27.7497 21.2001 27.4826 21.1158 27.4399 20.9757C27.4838 20.8356 27.7509 20.7513 28.6531 20.578L28.8312 20.5436C29.0793 20.4961 29.3618 20.4427 29.6586 20.3703L29.8853 20.3157V20.2848C30.0135 20.2373 30.1322 20.1744 30.2414 20.0961C30.6379 20.1934 30.9252 20.5495 30.9252 20.965C30.9252 21.3805 30.6355 21.7414 30.2355 21.8363C30.0432 21.7046 29.8556 21.6227 29.6597 21.5799C29.3891 21.5146 29.1279 21.4648 28.8976 21.4209H28.8953ZM20.251 28.6917C20.2236 28.3249 20.2082 27.9712 20.3186 27.6851C20.5287 27.1533 20.9264 27.126 21.0047 27.126H21.0237C21.1009 27.126 21.4998 27.1533 21.7122 27.691C21.831 27.9771 21.8037 28.3392 21.7775 28.6965V28.7214C21.7562 29.0728 21.7324 29.5025 21.8939 29.8859C21.8167 30.3097 21.4511 30.6207 21.0142 30.6207C20.5774 30.6207 20.2106 30.3097 20.1346 29.8859C20.2996 29.5013 20.2818 29.0692 20.251 28.6905V28.6917ZM13.1249 20.54L13.1403 20.5436C13.2187 20.559 13.2935 20.5733 13.3683 20.5875C14.2704 20.7608 14.5375 20.8463 14.5815 20.9852C14.5375 21.1253 14.2704 21.2096 13.3683 21.3829L13.195 21.4161C12.9457 21.4636 12.6643 21.517 12.3592 21.5906C12.1396 21.6476 11.9438 21.7366 11.7776 21.8565C11.3668 21.7675 11.0689 21.4102 11.0689 20.9852C11.0689 20.5602 11.3716 20.197 11.7752 20.1127C11.9545 20.2433 12.1563 20.3359 12.364 20.381C12.6347 20.4463 12.8958 20.4961 13.1249 20.54ZM30.1286 36.6772C30.4337 36.9752 30.8397 37.2553 31.362 37.3918C31.3691 37.3942 31.3774 37.3954 31.3846 37.3978C30.6557 37.8607 29.9007 38.2726 29.1244 38.6299C29.604 38.0708 29.9399 37.4191 30.1286 36.6772ZM36.4605 28.6846C33.1498 29.3078 30.7578 28.2786 29.2739 27.2233C30.5085 25.667 31.121 24.0704 30.9145 22.9368C31.6754 22.5961 32.1858 21.8268 32.1858 20.9757C32.1858 20.1246 31.6766 19.3565 30.9157 19.0158C31.1246 17.8905 30.5121 16.2891 29.2739 14.7293C30.7578 13.674 33.1498 12.6448 36.4605 13.268C40.296 13.9897 40.4515 20.6587 40.4562 20.9377V21.0208C40.4515 21.3033 40.3019 27.9605 36.4605 28.6858V28.6846ZM36.4403 10.4724C36.248 11.3141 35.2639 11.7473 35.0515 11.8316C31.9057 11.6892 29.6253 12.9202 28.4359 13.7749C28.4038 13.7416 28.3706 13.7096 28.3397 13.6775C28.2637 13.6016 28.1866 13.5268 28.1047 13.4508C28.8644 12.1498 30.0194 9.85988 30.2663 7.61156H30.302V7.3599C30.3696 7.15928 30.7934 6.009 31.6849 5.77633C32.4874 5.56384 33.5296 6.08022 34.7832 7.3136C36.0391 8.54223 36.6279 9.66283 36.4403 10.4724ZM31.3585 4.56195C30.9062 4.67947 30.4943 4.92045 30.1286 5.27894C29.9387 4.53939 29.5992 3.88531 29.1149 3.32145C29.896 3.67995 30.6533 4.09305 31.3834 4.55483C31.3751 4.5572 31.3668 4.55958 31.3573 4.56076L31.3585 4.56195ZM11.901 5.27538C11.5971 4.97743 11.1912 4.69728 10.67 4.56195C10.6617 4.55958 10.6534 4.5572 10.6451 4.55601C11.374 4.09424 12.1278 3.68351 12.9029 3.3262C12.4245 3.88413 12.0898 4.53583 11.8998 5.27657L11.901 5.27538ZM11.7408 7.40975L11.7443 7.42162C11.9438 9.77679 13.1427 12.1331 13.9286 13.4544C13.8478 13.5315 13.7683 13.6111 13.6912 13.6882L13.6805 13.6989C13.6544 13.7286 13.6259 13.7571 13.5974 13.7867C12.4708 12.9772 10.3661 11.8304 7.47442 11.8304C7.31179 11.8304 7.14678 11.834 6.9794 11.8411C6.7503 11.7497 5.77927 11.3188 5.58815 10.4807C5.40059 9.67233 5.98938 8.55172 7.2465 7.3231C8.47631 6.11227 9.54706 5.58046 10.3448 5.78583C11.3146 6.03986 11.7348 7.39551 11.7396 7.40975H11.7408ZM5.56915 13.2775C6.26597 13.1457 6.92124 13.0887 7.53733 13.0887C9.8462 13.0887 11.5841 13.9055 12.7557 14.7388C11.5224 16.2939 10.9086 17.8893 11.1116 19.0135C10.3258 19.353 9.81534 20.1139 9.81534 20.9864C9.81534 21.8589 10.3365 22.6151 11.1128 22.9569C10.9098 24.0811 11.5224 25.6777 12.7569 27.234C11.2731 28.2893 8.88111 29.3185 5.57153 28.6953C1.73607 27.9735 1.58057 21.3045 1.57582 21.0256V20.9425C1.58057 20.6587 1.73014 13.9933 5.57153 13.2775H5.56915ZM5.58933 31.479C5.78045 30.6421 6.75386 30.21 6.9794 30.1198C7.14916 30.1269 7.31535 30.1269 7.47679 30.1269C10.3673 30.1269 12.4827 28.9695 13.5938 28.1753C13.6259 28.2074 13.6579 28.2394 13.6912 28.2727C13.7671 28.3486 13.8467 28.4246 13.9262 28.4994C13.1665 29.8004 12.0114 32.0903 11.7645 34.3386H11.7289V34.5903C11.6612 34.7909 11.2375 35.9412 10.346 36.1739C9.54231 36.3875 8.50005 35.87 7.24768 34.6366C5.99175 33.408 5.40296 32.2874 5.59052 31.4778L5.58933 31.479ZM10.6617 37.3906C11.114 37.2731 11.5259 37.0321 11.8915 36.6736C12.0815 37.412 12.4198 38.0649 12.9029 38.6276C12.1183 38.2667 11.3609 37.8548 10.6368 37.3966C10.6451 37.3942 10.6534 37.3918 10.6617 37.3906ZM13.1214 33.7356C13.462 32.0215 14.3108 30.3477 14.8854 29.3541C16.0902 30.2919 17.2144 30.7489 18.3125 30.7489C18.5772 30.7489 18.8229 30.7252 19.0674 30.6741C19.0674 30.6741 19.0698 30.6741 19.071 30.6741C19.4259 31.4089 20.1714 31.8861 21.0047 31.8861C21.8381 31.8861 22.5848 31.4089 22.9385 30.6741C22.9432 30.6741 22.948 30.6765 22.9527 30.6777C23.2258 30.7276 23.4715 30.7501 23.7255 30.7501C24.801 30.7501 25.9157 30.2907 27.123 29.347C28.405 31.5775 30.5714 36.3128 27.377 38.4994C26.1282 39.3529 24.82 39.9286 23.4846 40.2123C23.3053 40.2527 23.1083 40.2824 22.8815 40.3037H22.8756C22.4506 40.3512 22.0114 40.3809 21.5674 40.3904H20.4373C19.9945 40.3797 19.6135 40.3583 19.2716 40.3239C18.9167 40.2907 18.646 40.2503 18.3955 40.1933C17.1064 39.9037 15.8386 39.3363 14.6301 38.51C13.1938 37.5236 12.6857 35.9175 13.119 33.7368L13.1214 33.7356ZM30.2889 34.5511L30.2853 34.5393C30.0859 32.1841 28.887 29.8277 28.1011 28.5065C28.1806 28.4306 28.2602 28.351 28.3385 28.2727L28.3492 28.262C28.3765 28.2323 28.4038 28.2026 28.4323 28.1741C29.5339 28.9683 31.6398 30.1269 34.5529 30.1269C34.6479 30.1269 34.7404 30.1245 34.833 30.1221H34.8556C34.9185 30.1198 34.9826 30.1186 35.0467 30.1174C35.2461 30.1957 36.248 30.6302 36.4415 31.4802C36.6291 32.2886 36.0403 33.4104 34.7832 34.6378C33.5308 35.8712 32.4886 36.3876 31.6849 36.1751C30.7151 35.921 30.2948 34.5642 30.2901 34.5511H30.2889ZM20.9252 1.55389H21.5342C21.9544 1.5622 22.4162 1.59306 22.9848 1.64886C23.1629 1.66904 23.3112 1.68684 23.4715 1.72246C24.8093 2.00379 26.1199 2.58309 27.3687 3.44372C28.805 4.43018 29.3131 6.0363 28.8798 8.21697C28.5391 9.92992 27.6904 11.6037 27.1158 12.5973C25.6569 11.4553 24.2965 11.022 22.9658 11.2749C22.618 10.5235 21.8476 10.0201 21.0059 10.0201C20.1643 10.0201 19.3939 10.5246 19.0461 11.2749C18.1866 11.1134 16.8381 11.0909 14.8972 12.6068C13.6152 10.3763 11.4488 5.641 14.6432 3.45322C15.9525 2.5546 17.3177 1.96581 18.7113 1.70109C18.8181 1.67616 18.9369 1.65835 19.0567 1.65004H19.0579C19.5126 1.61206 19.9815 1.57288 20.448 1.56339L20.9252 1.55389Z" fill="#FFF6EE" stroke="#FFF6EE" stroke-width="2" mask="url(#path-1-inside-1_547_6934)"/>
</svg>
